<mxfile host="Electron" modified="2023-12-27T10:17:14.255Z" agent="Mozilla/5.0 (Windows NT 10.0; Win64; x64) AppleWebKit/537.36 (KHTML, like Gecko) draw.io/22.1.11 Chrome/114.0.5735.289 Electron/25.9.8 Safari/537.36" etag="gyLd4Q0XHRWhMYZ038Wb" version="22.1.11" type="device">
  <diagram name="Страница — 1" id="FkuShSSRB5en3Pid9LVl">
    <mxGraphModel dx="1366" dy="2004" grid="1" gridSize="10" guides="1" tooltips="1" connect="1" arrows="1" fold="1" page="1" pageScale="1" pageWidth="827" pageHeight="1169" math="0" shadow="0">
      <root>
        <mxCell id="0" />
        <mxCell id="1" parent="0" />
        <mxCell id="ushxtYaF4rhHJb4sQvZ_-3" value="&lt;span style=&quot;font-size: 18px;&quot;&gt;SPA React&lt;/span&gt;" style="shape=rectangle;whiteSpace=wrap;html=1;boundedLbl=1;backgroundOutline=1;darkOpacity=0.05;darkOpacity2=0.1;" parent="1" vertex="1">
          <mxGeometry x="496" y="-177" width="114" height="54.01" as="geometry" />
        </mxCell>
        <mxCell id="ushxtYaF4rhHJb4sQvZ_-2" value="" style="shape=image;verticalLabelPosition=bottom;labelBackgroundColor=default;verticalAlign=top;aspect=fixed;imageAspect=0;image=https://upload.wikimedia.org/wikipedia/commons/thumb/a/a7/React-icon.svg/640px-React-icon.svg.png;" parent="1" vertex="1">
          <mxGeometry x="585" y="-134.93" width="45" height="39.17" as="geometry" />
        </mxCell>
        <mxCell id="ushxtYaF4rhHJb4sQvZ_-16" value="" style="swimlane;startSize=0;" parent="1" vertex="1">
          <mxGeometry x="630" y="-190" width="940" height="530" as="geometry">
            <mxRectangle x="660" y="-70.88" width="50" height="40" as="alternateBounds" />
          </mxGeometry>
        </mxCell>
        <mxCell id="ushxtYaF4rhHJb4sQvZ_-9" value="billing" style="shape=rectangle;whiteSpace=wrap;html=1;boundedLbl=1;backgroundOutline=1;darkOpacity=0.05;darkOpacity2=0.1;" parent="ushxtYaF4rhHJb4sQvZ_-16" vertex="1">
          <mxGeometry x="672" y="100" width="112" height="62.51" as="geometry" />
        </mxCell>
        <mxCell id="ushxtYaF4rhHJb4sQvZ_-10" value="participant" style="shape=rectangle;whiteSpace=wrap;html=1;boundedLbl=1;backgroundOutline=1;darkOpacity=0.05;darkOpacity2=0.1;" parent="ushxtYaF4rhHJb4sQvZ_-16" vertex="1">
          <mxGeometry x="142" y="166.81000000000003" width="120" height="80" as="geometry" />
        </mxCell>
        <mxCell id="ushxtYaF4rhHJb4sQvZ_-11" value="core" style="shape=rectangle;whiteSpace=wrap;html=1;boundedLbl=1;backgroundOutline=1;darkOpacity=0.05;darkOpacity2=0.1;" parent="ushxtYaF4rhHJb4sQvZ_-16" vertex="1">
          <mxGeometry x="690" y="400" width="111" height="55.03" as="geometry" />
        </mxCell>
        <mxCell id="ushxtYaF4rhHJb4sQvZ_-20" value="billing" style="shape=cylinder3;whiteSpace=wrap;html=1;boundedLbl=1;backgroundOutline=1;size=15;" parent="ushxtYaF4rhHJb4sQvZ_-16" vertex="1">
          <mxGeometry x="659.5" y="139.56" width="52" height="62.51" as="geometry" />
        </mxCell>
        <mxCell id="ushxtYaF4rhHJb4sQvZ_-29" value="" style="shape=image;verticalLabelPosition=bottom;labelBackgroundColor=default;verticalAlign=top;aspect=fixed;imageAspect=0;image=https://cdn.worldvectorlogo.com/logos/spring-3.svg;" parent="ushxtYaF4rhHJb4sQvZ_-16" vertex="1">
          <mxGeometry x="771" y="425.03" width="30" height="30" as="geometry" />
        </mxCell>
        <mxCell id="ushxtYaF4rhHJb4sQvZ_-31" value="" style="shape=image;verticalLabelPosition=bottom;labelBackgroundColor=default;verticalAlign=top;aspect=fixed;imageAspect=0;image=https://cdn.worldvectorlogo.com/logos/spring-3.svg;" parent="ushxtYaF4rhHJb4sQvZ_-16" vertex="1">
          <mxGeometry x="754" y="132.51000000000002" width="30" height="30" as="geometry" />
        </mxCell>
        <mxCell id="ushxtYaF4rhHJb4sQvZ_-33" value="" style="shape=image;verticalLabelPosition=bottom;labelBackgroundColor=default;verticalAlign=top;aspect=fixed;imageAspect=0;image=https://cdn.worldvectorlogo.com/logos/spring-3.svg;" parent="ushxtYaF4rhHJb4sQvZ_-16" vertex="1">
          <mxGeometry x="232" y="216.81000000000003" width="30" height="30" as="geometry" />
        </mxCell>
        <mxCell id="ushxtYaF4rhHJb4sQvZ_-50" value="" style="endArrow=classic;html=1;rounded=0;entryX=0;entryY=0;entryDx=50;entryDy=0;entryPerimeter=0;exitX=0.5;exitY=0;exitDx=0;exitDy=0;exitPerimeter=0;" parent="ushxtYaF4rhHJb4sQvZ_-16" source="V8vmQvvyC8vrOCU54Fl0-16" target="ushxtYaF4rhHJb4sQvZ_-11" edge="1">
          <mxGeometry width="50" height="50" relative="1" as="geometry">
            <mxPoint x="502" y="272.51" as="sourcePoint" />
            <mxPoint x="552" y="222.51000000000002" as="targetPoint" />
          </mxGeometry>
        </mxCell>
        <mxCell id="ushxtYaF4rhHJb4sQvZ_-51" value="&lt;font style=&quot;font-size: 16px;&quot;&gt;Платёж&lt;/font&gt;" style="edgeLabel;html=1;align=center;verticalAlign=middle;resizable=0;points=[];" parent="ushxtYaF4rhHJb4sQvZ_-50" vertex="1" connectable="0">
          <mxGeometry x="0.0077" y="1" relative="1" as="geometry">
            <mxPoint x="-47" y="-22" as="offset" />
          </mxGeometry>
        </mxCell>
        <mxCell id="ushxtYaF4rhHJb4sQvZ_-53" value="XSD pacs008" style="edgeLabel;html=1;align=center;verticalAlign=middle;resizable=0;points=[];" parent="ushxtYaF4rhHJb4sQvZ_-50" vertex="1" connectable="0">
          <mxGeometry x="0.5109" y="-1" relative="1" as="geometry">
            <mxPoint x="-48" y="-24" as="offset" />
          </mxGeometry>
        </mxCell>
        <mxCell id="ushxtYaF4rhHJb4sQvZ_-54" value="" style="endArrow=classic;html=1;rounded=0;entryX=0.5;entryY=1;entryDx=0;entryDy=0;exitX=0;exitY=0;exitDx=49.99999999999999;exitDy=0;exitPerimeter=0;" parent="ushxtYaF4rhHJb4sQvZ_-16" source="ushxtYaF4rhHJb4sQvZ_-11" target="ushxtYaF4rhHJb4sQvZ_-9" edge="1">
          <mxGeometry width="50" height="50" relative="1" as="geometry">
            <mxPoint x="862" y="232.51" as="sourcePoint" />
            <mxPoint x="912" y="182.51000000000002" as="targetPoint" />
            <Array as="points" />
          </mxGeometry>
        </mxCell>
        <mxCell id="ushxtYaF4rhHJb4sQvZ_-55" value="&lt;span style=&quot;font-size: 14px;&quot;&gt;Данные о транзакциях&lt;/span&gt;" style="edgeLabel;html=1;align=center;verticalAlign=middle;resizable=0;points=[];" parent="ushxtYaF4rhHJb4sQvZ_-54" vertex="1" connectable="0">
          <mxGeometry x="-0.5651" relative="1" as="geometry">
            <mxPoint x="17" y="-18" as="offset" />
          </mxGeometry>
        </mxCell>
        <mxCell id="ushxtYaF4rhHJb4sQvZ_-71" style="edgeStyle=orthogonalEdgeStyle;rounded=0;orthogonalLoop=1;jettySize=auto;html=1;entryX=0;entryY=0.5;entryDx=0;entryDy=0;" parent="ushxtYaF4rhHJb4sQvZ_-16" source="ushxtYaF4rhHJb4sQvZ_-61" target="ushxtYaF4rhHJb4sQvZ_-70" edge="1">
          <mxGeometry relative="1" as="geometry" />
        </mxCell>
        <mxCell id="ushxtYaF4rhHJb4sQvZ_-72" style="edgeStyle=orthogonalEdgeStyle;rounded=0;orthogonalLoop=1;jettySize=auto;html=1;entryX=0;entryY=0.5;entryDx=0;entryDy=0;" parent="ushxtYaF4rhHJb4sQvZ_-16" source="ushxtYaF4rhHJb4sQvZ_-61" target="ushxtYaF4rhHJb4sQvZ_-69" edge="1">
          <mxGeometry relative="1" as="geometry" />
        </mxCell>
        <mxCell id="V8vmQvvyC8vrOCU54Fl0-40" style="edgeStyle=orthogonalEdgeStyle;rounded=0;orthogonalLoop=1;jettySize=auto;html=1;entryX=0;entryY=0.5;entryDx=0;entryDy=0;" parent="ushxtYaF4rhHJb4sQvZ_-16" source="ushxtYaF4rhHJb4sQvZ_-61" target="V8vmQvvyC8vrOCU54Fl0-38" edge="1">
          <mxGeometry relative="1" as="geometry">
            <Array as="points">
              <mxPoint x="831" y="392.51" />
              <mxPoint x="831" y="448.51" />
            </Array>
          </mxGeometry>
        </mxCell>
        <mxCell id="ushxtYaF4rhHJb4sQvZ_-61" value="" style="shape=image;verticalLabelPosition=bottom;labelBackgroundColor=default;verticalAlign=top;aspect=fixed;imageAspect=0;image=https://www.svgrepo.com/download/18106/settings.svg;" parent="ushxtYaF4rhHJb4sQvZ_-16" vertex="1">
          <mxGeometry x="771" y="372.53" width="40" height="40" as="geometry" />
        </mxCell>
        <mxCell id="ushxtYaF4rhHJb4sQvZ_-69" value="Camunda" style="shape=process;whiteSpace=wrap;html=1;backgroundOutline=1;" parent="ushxtYaF4rhHJb4sQvZ_-16" vertex="1">
          <mxGeometry x="846.5" y="347.03" width="70" height="35" as="geometry" />
        </mxCell>
        <mxCell id="ushxtYaF4rhHJb4sQvZ_-70" value="Spring Events" style="shape=process;whiteSpace=wrap;html=1;backgroundOutline=1;" parent="ushxtYaF4rhHJb4sQvZ_-16" vertex="1">
          <mxGeometry x="846.5" y="390.03" width="70" height="35" as="geometry" />
        </mxCell>
        <mxCell id="ushxtYaF4rhHJb4sQvZ_-75" value="" style="endArrow=classic;html=1;rounded=0;exitX=1;exitY=0.5;exitDx=0;exitDy=0;entryX=0;entryY=0.5;entryDx=0;entryDy=0;" parent="ushxtYaF4rhHJb4sQvZ_-16" source="o0dc_WJTzwSoo736SJXJ-4" target="ushxtYaF4rhHJb4sQvZ_-77" edge="1">
          <mxGeometry width="50" height="50" relative="1" as="geometry">
            <mxPoint x="573.5" y="72.51000000000002" as="sourcePoint" />
            <mxPoint x="623.5" y="22.509999999999998" as="targetPoint" />
          </mxGeometry>
        </mxCell>
        <mxCell id="ushxtYaF4rhHJb4sQvZ_-77" value="Jasper reports" style="shape=process;whiteSpace=wrap;html=1;backgroundOutline=1;" parent="ushxtYaF4rhHJb4sQvZ_-16" vertex="1">
          <mxGeometry x="823.5" y="72.51000000000002" width="104.5" height="40" as="geometry" />
        </mxCell>
        <mxCell id="o0dc_WJTzwSoo736SJXJ-1" value="jaxb" style="shape=process;whiteSpace=wrap;html=1;backgroundOutline=1;" parent="ushxtYaF4rhHJb4sQvZ_-16" vertex="1">
          <mxGeometry x="155.5" y="82.51000000000005" width="50" height="24.8" as="geometry" />
        </mxCell>
        <mxCell id="o0dc_WJTzwSoo736SJXJ-4" value="" style="shape=image;verticalLabelPosition=bottom;labelBackgroundColor=default;verticalAlign=top;aspect=fixed;imageAspect=0;image=https://www.svgrepo.com/download/18106/settings.svg;" parent="ushxtYaF4rhHJb4sQvZ_-16" vertex="1">
          <mxGeometry x="754" y="72.81000000000002" width="40" height="40" as="geometry" />
        </mxCell>
        <mxCell id="o0dc_WJTzwSoo736SJXJ-5" value="" style="shape=image;verticalLabelPosition=bottom;labelBackgroundColor=default;verticalAlign=top;aspect=fixed;imageAspect=0;image=https://www.svgrepo.com/download/18106/settings.svg;" parent="ushxtYaF4rhHJb4sQvZ_-16" vertex="1">
          <mxGeometry x="232" y="166.81000000000003" width="40" height="40" as="geometry" />
        </mxCell>
        <mxCell id="V8vmQvvyC8vrOCU54Fl0-2" value="" style="shape=image;verticalLabelPosition=bottom;labelBackgroundColor=default;verticalAlign=top;aspect=fixed;imageAspect=0;image=https://upload.wikimedia.org/wikipedia/commons/thumb/2/29/Postgresql_elephant.svg/1985px-Postgresql_elephant.svg.png;" parent="ushxtYaF4rhHJb4sQvZ_-16" vertex="1">
          <mxGeometry x="702" y="190.52" width="25.5" height="26.29" as="geometry" />
        </mxCell>
        <mxCell id="V8vmQvvyC8vrOCU54Fl0-4" value="nginx" style="shape=rectangle;whiteSpace=wrap;html=1;boundedLbl=1;backgroundOutline=1;darkOpacity=0.05;darkOpacity2=0.1;" parent="ushxtYaF4rhHJb4sQvZ_-16" vertex="1">
          <mxGeometry x="52" y="10" width="90" height="52.52" as="geometry" />
        </mxCell>
        <mxCell id="ushxtYaF4rhHJb4sQvZ_-6" value="" style="shape=image;verticalLabelPosition=bottom;labelBackgroundColor=default;verticalAlign=top;aspect=fixed;imageAspect=0;image=https://static-00.iconduck.com/assets.00/file-type-nginx-icon-1793x2048-yt5u3fm7.png;" parent="ushxtYaF4rhHJb4sQvZ_-16" vertex="1">
          <mxGeometry x="120.5" y="35.7" width="41" height="46.81" as="geometry" />
        </mxCell>
        <mxCell id="V8vmQvvyC8vrOCU54Fl0-17" value="" style="shape=image;verticalLabelPosition=bottom;labelBackgroundColor=default;verticalAlign=top;aspect=fixed;imageAspect=0;image=https://upload.wikimedia.org/wikipedia/commons/thumb/7/71/RabbitMQ_logo.svg/2560px-RabbitMQ_logo.svg.png;" parent="ushxtYaF4rhHJb4sQvZ_-16" vertex="1">
          <mxGeometry x="337" y="191.10999999999993" width="70" height="10.96" as="geometry" />
        </mxCell>
        <mxCell id="V8vmQvvyC8vrOCU54Fl0-19" value="" style="endArrow=classic;html=1;rounded=0;entryX=0.5;entryY=1;entryDx=0;entryDy=0;entryPerimeter=0;exitX=1;exitY=0;exitDx=0;exitDy=0;" parent="ushxtYaF4rhHJb4sQvZ_-16" source="ushxtYaF4rhHJb4sQvZ_-33" target="V8vmQvvyC8vrOCU54Fl0-16" edge="1">
          <mxGeometry width="50" height="50" relative="1" as="geometry">
            <mxPoint x="912" y="6.509999999999998" as="sourcePoint" />
            <mxPoint x="1386" y="185.51000000000002" as="targetPoint" />
          </mxGeometry>
        </mxCell>
        <mxCell id="V8vmQvvyC8vrOCU54Fl0-16" value="JMS" style="shape=cylinder3;whiteSpace=wrap;html=1;boundedLbl=1;backgroundOutline=1;size=16.969659978692903;rotation=90;direction=east;horizontal=0;" parent="ushxtYaF4rhHJb4sQvZ_-16" vertex="1">
          <mxGeometry x="357" y="166.81" width="30" height="102.5" as="geometry" />
        </mxCell>
        <mxCell id="V8vmQvvyC8vrOCU54Fl0-27" value="" style="curved=1;endArrow=classic;html=1;rounded=0;entryX=0;entryY=0;entryDx=0;entryDy=30;entryPerimeter=0;exitX=0.5;exitY=0;exitDx=0;exitDy=0;exitPerimeter=0;" parent="ushxtYaF4rhHJb4sQvZ_-16" source="V8vmQvvyC8vrOCU54Fl0-16" target="ushxtYaF4rhHJb4sQvZ_-9" edge="1">
          <mxGeometry width="50" height="50" relative="1" as="geometry">
            <mxPoint x="303.25" y="268.08000000000027" as="sourcePoint" />
            <mxPoint x="362" y="425.0300000000001" as="targetPoint" />
            <Array as="points" />
          </mxGeometry>
        </mxCell>
        <mxCell id="V8vmQvvyC8vrOCU54Fl0-35" value="" style="rounded=0;whiteSpace=wrap;html=1;" parent="ushxtYaF4rhHJb4sQvZ_-16" vertex="1">
          <mxGeometry x="711.5" y="257.77" width="57" height="25" as="geometry" />
        </mxCell>
        <mxCell id="V8vmQvvyC8vrOCU54Fl0-34" value="" style="shape=image;verticalLabelPosition=bottom;labelBackgroundColor=default;verticalAlign=top;aspect=fixed;imageAspect=0;image=data:image/svg+xml,PHN2ZyB4bWxucz0iaHR0cDovL3d3dy53My5vcmcvMjAwMC9zdmciIGhlaWdodD0iNjAiIHdpZHRoPSIxMjAiIHZpZXdCb3g9IjAgMCAxMjAgNjAiPjxwYXRoIGZpbGwtcnVsZT0iZXZlbm9kZCIgZmlsbD0iIzJkYTZiMCIgZD0iTTQ5LjgzIDI4LjE2NGgyLjI1OGMuNyAwIDEuMjYtLjA5NCAxLjY3NC0uMjhzLjczMy0uNDU1Ljk1NC0uODA0LjM3LS43OC40NDgtMS4yOS4xMTctMS4xMDQuMTE3LTEuNzc3LS4wNC0xLjI2Ni0uMTE3LTEuNzc3LS4yNC0uOTQ4LS40ODctMS4zMS0uNi0uNjMtMS4wMzItLjgwNC0xLjAyNS0uMjYyLTEuNzUyLS4yNjJINDkuODN6bS0zLjk3LTEyLjA1aDYuMzg1YzQuNjcyIDAgNy4wMDggMi43MTcgNy4wMDggOC4xNTIgMCAxLjYxMi0uMjUzIDIuOTk3LS43NiA0LjE1NHMtMS4zOTUgMi4wODctMi42NjcgMi43OWw0LjI4MiAxMi42NzZoLTQuMjA1bC0zLjc2LTEyLjA2M0g0OS44M3YxMi4wNjNoLTMuOTd6bTE2LjU4NCAwSDY4LjRjMS4xIDAgMi4wNS4xNDMgMi44OC40M3MxLjU4My43OTMgMi4yNTggMS41MmE1Ljk1IDUuOTUgMCAwIDEgMS40MDIgMi41NTVjLjI2Ljk3NS4zOSAyLjI5NS4zOSAzLjk2IDAgMS4yMjItLjA5OCAyLjA5Ny0uMjQgMi45NjhzLS42MDMgMi4zODctMi40MTQgMy40MTVjLTEuMTMyLjY0My0yLjc1Ny44NzQtNC4yMzYuODc0aC0yLjAyNHYxMi4wNWgtMy45N3ptMy45NyAxMi4wNWgxLjkwOGMuODA1IDAgMS40MjctLjEwMyAxLjg3LS4zMXMuNzY2LS40ODYuOTczLS44NC4zMy0uNzg0LjM3LTEuMjg3LjA1OC0xLjA2NC4wNTgtMS42ODJjMC0uNTcyLS4wMi0xLjExNS0uMDU4LTEuNjNzLS4xNTYtLjk2LS4zNS0xLjM0LS41LS42NzUtLjkxNS0uODkyLTEuMDEyLS4zMjYtMS43OS0uMzI2aC0yLjA2M3ptMjQuNDg3IDkuNTJjMCAuODU4LS4xNjIgMS42NzctLjQ4NyAyLjQ1N3MtLjc3MiAxLjQ2My0xLjM0MyAyLjA0OGE2LjY0IDYuNjQgMCAwIDEtMi4wMDUgMS40MDQgNS44NiA1Ljg2IDAgMCAxLTIuNDcyLjUyN2MtLjc1MyAwLTEuNTE4LS4xMDQtMi4yOTctLjMxMmE1LjU3IDUuNTcgMCAwIDEtMi4xMDItMS4wNzNjLS42MjMtLjUwNy0xLjEzNS0xLjE3Ny0xLjUzOC0yLjAxcy0uNjAzLTEuODg1LS42MDMtMy4xNnYtMTUuM2MwLS45LjE1Ni0xLjc1NS40NjctMi41MzVzLjc1My0xLjQ1NiAxLjMyNC0yLjAyOCAxLjI1Mi0xLjAyIDIuMDQ0LTEuMzQ2IDEuNjY4LS40ODggMi42MjgtLjQ4OGMuOTA4IDAgMS43NTIuMTYzIDIuNTMuNDg4czEuNDUzLjc4IDIuMDI0IDEuMzY1IDEuMDIgMS4yODcgMS4zNDMgMi4xMDYuNDg3IDEuNy40ODcgMi42NzJ2MS41NmgtMy45N3YtMS4zMjZjMC0uNzgtLjIyLTEuNDU2LS42NjItMi4wMjhhMi4xNCAyLjE0IDAgMCAwLTEuNzkxLS44NThjLS45ODYgMC0xLjY0Mi4zMDYtMS45NjYuOTE3cy0uNDg3IDEuMzg1LS40ODcgMi4zMnYxNC4xOThjMCAuODA2LjE3NSAxLjQ4Mi41MjYgMi4wMjhzLjk4LjgyIDEuODg4LjgyYy4yNiAwIC41NC0uMDQ2LjgzNy0uMTM3cy41Ny0uMjQuODE4LS40NS40NDgtLjQ5NC42MDMtLjg1OC4yMzQtLjgyLjIzNC0xLjM2NXYtMS4zNjVoMy45N3ptNy43OC03LjcyYzAtMS4wMTQtLjgyLTEuODM2LTEuODMtMS44MzZoLTkuOTE3djMuNjdoOC4wODZ2NC4wOTVoLTEuMjQ2bDMuMDk4IDQuMzc3IDMuMDk4LTQuMzc3aC0xLjI4OHptLTY5LjY0IDEuODd2NS40OTdjMCAxLjE0NC4xOTUgMi4xNC41ODQgMi45ODRzLjkwMiAxLjU0NyAxLjUzOCAyLjEwNiAxLjM1Ljk4MiAyLjE0IDEuMjY4YTcgNyAwIDAgMCAyLjM5NC40MjkgNyA3IDAgMCAwIDIuMzk0LS40MjljLjc5Mi0uMjg2IDEuNTA1LS43MSAyLjE0LTEuMjY4czEuMTQ4LTEuMjYgMS41MzgtMi4xMDYuNTg0LTEuODQuNTg0LTIuOTg0di05LjE2bC03LjExNS0uMDEtLjAxIDMuNjczaDMuMTUzdjUuNDk4YzAgLjk2Mi0uMjY2IDEuNjctLjc5OCAyLjEyNmEyLjgxIDIuODEgMCAwIDEtMS44ODguNjgzIDIuODEgMi44MSAwIDAgMS0xLjg4OC0uNjgzYy0uNTMyLS40NTUtLjc5OC0xLjE2NC0uNzk4LTIuMTI2VjIyLjY2N2MwLS45NjIuMjY2LTEuNjcuNzk4LTIuMTI2YTIuODEgMi44MSAwIDAgMSAxLjg4OC0uNjgzIDIuODEgMi44MSAwIDAgMSAxLjg4OC42ODNjLjUzMi40NTUuNzk4IDEuMTY0Ljc5OCAyLjEyNnYxLjQwNGgzLjk3di0xLjQwNGMwLTEuMTE4LS4xOTUtMi4xMDYtLjU4NC0yLjk2NHMtLjkwMi0xLjU2Ny0xLjUzOC0yLjEyNi0xLjM1LS45ODItMi4xNC0xLjI2OGE3IDcgMCAwIDAtMi4zOTQtLjQyOSA3IDcgMCAwIDAtMi4zOTQuNDI5Yy0uNzkyLjI4Ni0xLjUwNS43MS0yLjE0IDEuMjY4cy0xLjE0OCAxLjI2OC0xLjUzOCAyLjEyNi0uNTg0IDEuODQ2LS41ODQgMi45NjR2NS40OTdIMjQuOThWMjQuMDdoMS4yNDZsLTMuMDk4LTQuMzc3LTMuMDk4IDQuMzc3aDEuMjg4VjMwYzAgMS4wMTQuODIgMS44MzYgMS44MyAxLjgzNmg1Ljg5M3oiLz48L3N2Zz4=;" parent="ushxtYaF4rhHJb4sQvZ_-16" vertex="1">
          <mxGeometry x="709" y="254.76999999999998" width="62" height="31" as="geometry" />
        </mxCell>
        <mxCell id="V8vmQvvyC8vrOCU54Fl0-38" value="schedule" style="shape=process;whiteSpace=wrap;html=1;backgroundOutline=1;" parent="ushxtYaF4rhHJb4sQvZ_-16" vertex="1">
          <mxGeometry x="846.75" y="432.51" width="69.5" height="32.52" as="geometry" />
        </mxCell>
        <mxCell id="V8vmQvvyC8vrOCU54Fl0-42" value="" style="shape=image;verticalLabelPosition=bottom;labelBackgroundColor=default;verticalAlign=top;aspect=fixed;imageAspect=0;image=data:image/jpeg,/9j/4AAQSkZJRgABAQAAAQABAAD/2wCEAAoHCA8PDw8PDxASDw8PEhESDw8QDxEQDw8PGBQZGRgUFhgcLi4lHh4rIBkYJzgmKy8xQzhDHCU7QDs0Pzw0NjEBDAwMEA8QGBISGDQhISU0NDE0NDExMTQxNDExMTE0MTE0MTQxMTE0NDE0NDE0NDQ0NDQ0NDU0MTE0MTQxMTExNP/AABEIAOEA4QMBIgACEQEDEQH/xAAcAAEAAwEBAQEBAAAAAAAAAAAAAQIHBgUEAwj/xABDEAACAQMABwMIBQkJAQAAAAAAAQIDBBEFBhIhMVFxQWGBExYiNFR0kdEHMpOhsxRCc4KSlLGywRcjJFJicsLS8FP/xAAZAQEBAAMBAAAAAAAAAAAAAAAAAgEDBAX/xAAxEQACAQEECAUDBQEAAAAAAAAAAQIRAwQxoRIUIUGBweHwE0JRUmIyYXEikbHR8SP/2gAMAwEAAhEDEQA/ANmAAAAAAAAAAAAAAAAAAAAAAAAAAAAAAAAAAAAAAAAAAAAAAAAAAABBzmldaKVJuNFKtNbnLLVOL6/neHxJnOMFWToTOcYKsnQ6QGa3enburnNaUV/lhinFd27e/Fnmzk5b5NyfOTbf3nM72t0e8zld8W6PeZrYMgaXIq4rkhrXxz6E658M+hsIMccVyRVxXJGdZ+OfQa58c+hsoMYcVyRDiuSK8f459Brvwz6G0AxVxXJfAq4rkjPjfbMa78M+htgMRcVyX3FXGPJFeJ9jGu/DPobgDDnGPJFXGPJGdP7DXfhn0NzJMMi9nfH0Xzi8P7j0LPWC9oNbFzUSX5lR7cemJ5x4FKRSvq3xz/w2MHD6H16hNqF5BU3w8tTy6ef9Ud7XVZ8DtKdSM4qUWpRkk4yi04yT4NNcUUdMLSM1WLP0AANgAAAAAAAAAIJOb1v0k6VJUYvE6ye01xjT4P4vd8SZzUIuTJnNQi5M8jWLT0q8pUaMsUFulJbnVf8A17u055sNkNnlSlKbqzyZzc3WRDZDZDZDYSIDZVsNlWzYkA2GyGyrZSQJbKthsq2bEjAbIbDZRspIBshsNlWzYkCGyGw2VbKSMBsq2GyrZaQJbPd1Z1kqWM1Cbc7aT9OHF088Zw7+a7eu88Eq2WkZjNxdY4m7UK8KkIzhJShOKlGSeVKLWU0fsZ59HmmHmVlN7t86GXw7ZwX8y8TQsmD2LK0VpFSRIABsAAAAAABmusNy6t3Wed0ZbMe6MPR3eKb8TSjIpT2m5PjJtvq95yXt7Irvvacd8l+mK772hso2GyGzjSOANlWw2Q2bEgGyrYbKtlpANlWw2VbLSMEtlGw2Q2WkA2Q2GyrZaQDZVsNlWykjAbKthsq2WkA2GQ2Q2WkYDZVsNlWygfTYXbt69KvHjSqRm++OfSXisrxNypSUkmnlPenzRgTNu0BVc7S2k+MqNKT6uERJYHfcX9S/B6gAIO8AAAAAAgx+L3LojYDHYvcuiOS9eXjyOG+eTjyLNlWw2Q2c6RxBsq2GyrZaQDZVsNlWy0jAbKthsq2WkCWyrYbKtlpAlsq2Q2VbLoYJbKthsq2UkA2Q2GyGy0jAbKthsq2WkA2QwVbKAbNr1a9Ttfd6P8kTE2bXq16nae70f5IkzWxHdccZcOZ7IANZ6AAAAAABBjcXuXRGyGMxe5dEc148vHkcN88nHkXbKtkNkNmhI4g2VbDZVstIwGyrYbKtlpANlWw2Q2WkA2VbDZVstIwGyrZLZRsugJbIbDZVspIwGyGw2VbLSAbIZDDZQDZUFWykjBLZturPqdp7vR/kiYg2bfqz6lae70fw4k2mCO+44y4cz2AAaT0AAAAAACDF4vcuhtBi0XuXRGi3X08eRw33yceRLZDZDZVs0pHCS2VbDZVstIHTav6t07yg6s6s4NVJQ2Yxi1hKLzv6nh6VtVb3FWjGTkqctlSaSb3J7zt9RPUn+ln/ACxOP1nf+Puf0n/FG2iojptLOKsYSS2v+jy2zsdEanUq1vSq1qlSFSpHb2YbOFFv0eKznGH4nN6EsHd3VKj+bKWaj5Qjvl927xRpekdKU7apa0pYX5TPYW/CjHZwpdMuK8SoozdrKLTlNbMOJmGmbCVrc1aDbahL0JPjOD3xfwfxyfA2d59IWj806d1Fb6b8nUf+iTzBvpLK/WOBZVDRbWehNxO10TqpaXdCFeFxUSksTjsxbhUX1ovp8mcnpKynbVp0KixODxnsmuMZLuawz1dUtN/kdfZqP/D1mo1M8KcvzZ+Hb3dEdvrDq7Tv5UJuWxKnJKclxnR4uKfPk+zLKN6s42tnWCpJY99+hyermqX5XQ8vWnOlGbxSUYxblFbnJ57M8OnQ8PTtpQt7idGhUnVVP0ZzkopeU7Yxxy4dcmg616ZjYW0aVHEa1SOxRjHGKUEsOWO5bl39GZY2UiLxGFmlCK27333Sh3mj9R6NahRquvOLqwhUcVGOE5RTwvifv/Z9Q9oqfsRPesZSWjaLjlSVnFxa4qSpLGO8zeOltMPGKt03y2Zyy+gVXvN9pGxs9GsK19OB6em9R6tCEqtvU8vGCcpU3DZqKK4uON0um58snH5Nn0JcV/yKlUvP7uqoSlWcko7MVKWJSXBPZSbXXgYzWnGUpygsQlOTguGIuTaXwLhV1TNF5s4Q0ZR2V3FGyGw2VbNtDmDZuOrPqVn7vR/DiYYzc9WPUrP3ej+HE122CO644y4cz2AAaD0AAAAAACDFIPcuhtZiUXuXRGm1WBw33yceRZsq2Q2Q2a6HCGyrZ9ei6NKpXpwr1PJU5S9Ob7Fyz2Z4ZfDJ3mkdU7Svsyhmg4xUfQ+rKKWFlPtx2/HJsUdhus7GVpFuO4pqH6k/0tT+ETjNZ3/j7r9J/wAUaRZ2tCxttlS2KVNOU5zay23lyk+fd0RmF5Ule3k5QXpXNTEIvsTliOeixnxNm6huvC0bKEHiddqBo/Zp1LqS31H5On/si/Sa6y3fqF9Y9Wrq9uPKxq04QjGMKcZOe1FLe28LjtN/cerpW5jo2w/u8ZpxhToqW/am92Xz7ZPozi/Pa+50/s18yi5+FCCsp5GgVbR17aVC4cXKpT2Kko5xt43yjnv3ox24pTpznTmsThKUJrlJPDO/1S1mq3VeVC42Npw2qTjHYy4v0ovfv3PP6rPH+kHR3k7iFzFejcLE+SqQSX3xx+yzKIvGjaWatI7u/wCdpy9tbzrVIUqcdqdSSjGPNv8Ap2t9xsejLf8AJ7ehQlPbcIKmpSeHOSXBd254XJHOaiaD8lT/ACurH+9qxxSi+NOn/m6v+GObPA1v1inXuYRt5uNO1nmnOL+vWzvmuaXBePMzSosqWENOWL3d/ufT9IWi5wrRvE5Tp1FGE87/ACU0tyXKL3vrnmjjGzXtFXlHSlk9uKaqRdOvTT+pPG/HLskn07TLtNaNnZ3E6E9+zvhPgp039WS/9xTRcXuNV6s0v+kcJfz1NZ0VVVOwoTllqFrTm0uLUaabx37jxP7QrL/53P2dL/se3oump2FCDeFO1pwbXFKVNLP3nOf2eW/tFX9mPyIWjvO+08XZ4dOJ7FOvaaZtakYzqeTyozinKnUhPGVlLc1278rd3GV6X0fK0uKttN7TpywpJYUotKUZY7Mprca1ojRNtouhPZk4wb26tarJLgsLL3JJf1Mq1l0jG7va9ennYnKKhlYbhCKinjszjPibLPFpYHJe1+iLnTS+x5jZDYZVs6EjhJbNy1Y9Ss/d6P4cTCzdNWPUrP3ej+HE1W+CO644y4cz2QAcx6IAAAAABBiEHuXRG3mHQe5dDXaLA4L75OPIs2UbDZDZKRxBs+y00vdUI7FKvUhHsinmK6ReUvA+Fsq2UkYTa2p0PqvdIXFxjy1WpUS3pTk9lPmo8Ez8KFedOcZ05yhOOdmcXiUcrDw+jZ+TYLDbrWu0+q70jcV0o1q1SrGLzGM5NpSxjKyfG2GyGyw23tZejXlTnGdOcoTjvjODcZReMbn0bP3u9KXNeKhWr1KsE1JRqSbipJNZw+3e/ifG2VbKoKvCp6M9O3zTi7qs00015WWGuXE80NkNlJUDk3i6n0Wt/XobXkKtSlt42/JzlHaxnGcceL+JF5fV67i69WpVcMqLnJycU+KWeh87ZVsuhirpSuw++Gm72EYwhdVoQglGMY1pqMYpYSSzuRL0/f8Atlx9tU+Z5zZVsrRXoVpz9z/c/a6vKtXHlas6uOHlKk54fdtM/AhkNlpEBsgENlANm66r+pWfu9H8OJhBu2q/qVn7vR/DiaLxgjuuOMuHM9oAHMeiAAAAAAQzDIP0fA3NmFQfo+BE9xwX3yceRZsq2GyrYSOENlWw2GykgCrYbKtlpGA2Q2GypSAbIbDZDZQDZVsNlWy0jBLZDYbKNlpANkNhkNlJANkAqygGQA2UCGzd9V/UbP3eh+HEwc3jVb1Cz93t/wAOJz3nCJ3XHGXDme0ADlPRAAAAAAIMKcXH0XxjufVbjdjG9ZLV0b26p4wlNzh/sl6ax+1jwMNHFfVsi/z3keW2VbDZDZlI88llWw2VbKoYDZDYbKlJAMq2Gwy0gGVbDZVsswGyGS2UbKSAbIbIbDZSQDZQBsoBkAFAhkAjJQIbN71bi42VpF7nG3oJ9VTiYXZWsq9alRh9arUhTXbjMks+HE/oO0goxUY7oxSSXJJYRzXl/SjvuC+p/jmfUADkPQAAAAAABwv0iaKc4QvILLprydbHHybfoy8G2v1u47o/KrTjOLjJKUZJqUWsqUWsNNcgRaQU4uLMJbIbPf1q1dnY1HOCcrab9CfF02/zZvnyfb1yc82UjxpRcG4vENlWw2QWkSGVbDZBSQBDYbKtlUMBshhshstANlGw2Q2UkCWygDKAbIBBQDIBUowSyAevq5oGtpCsoQTjSi15atj0YR5LnJ9i/oG0lVmYxc2kltOh+jXQzqVpXs4+hRzCln86q1iUl3Ri2usu41elHCPi0ZY07elCjSjs06cVGEe7m+bby2+89FI860npyqe1Y2as4KPdSQAQbQAAAAAAAAD8bihCpGUJxU4SWJRklKMlyaZwOndRJJynZS3cfITlw7oTf8JfE0QhoynQ12llG0VJIwe9sa9u9mvSqUnznF7L6S4PwZ8uTfZ0k001lPinvTPgq6EtJvMrejJ85Uaef4Faf2OR3H0ll15GIENm1+b1n7LQ+wh8h5v2fstv9hT+RXiL0Mai/dl1MSbKtm3+b9l7Jb/YU/kPN6z9kt/sKfyM+KvQai/dl1MPbKtm5eb1n7Jb/YU/kPN6z9kt/sKfyM+MvQxqL92XUwxsqbr5u2Xslv8AYU/kR5u2Xslv9hT+RXjr0M6i/dl1MLbIN183bL2S3/d6fyI83LL2S3/d6XyM6wvQxqL92XUwoqbv5uWXslv+70vkPNux9jt/3el8jOsr2jUX7supg7Z+9rZ1a8tijTqVZcoQlJrrjgbpT1fs4vMbW3i+aoU0/wCB91O2jFbMUoxXBJJJeAd59I5mVcfWWXUy7QX0fVqjjO9l5GHHyMJKVWXdKS3RXTL6Gk6N0dSt6caVGEadOP1YxX3t9r72fdGmkfokc87SU8Trs7GFmv0r+yIxwWAINoAAAAAAAAAAAAAAAAAAAAAAAAAAAAAAAAAAAAAAAAAAAAAAAAAAAAAAAAAAAAAAAAAAAAAAAAAAAAAAAAAAAAAAAAAAAAAAAB//2Q==;" parent="ushxtYaF4rhHJb4sQvZ_-16" vertex="1">
          <mxGeometry x="192" y="92.50000000000006" width="30" height="30" as="geometry" />
        </mxCell>
        <mxCell id="V8vmQvvyC8vrOCU54Fl0-43" value="jwt" style="shape=process;whiteSpace=wrap;html=1;backgroundOutline=1;" parent="ushxtYaF4rhHJb4sQvZ_-16" vertex="1">
          <mxGeometry x="223.5" y="82.51000000000005" width="50" height="24.26" as="geometry" />
        </mxCell>
        <mxCell id="V8vmQvvyC8vrOCU54Fl0-41" value="" style="shape=image;verticalLabelPosition=bottom;labelBackgroundColor=default;verticalAlign=top;aspect=fixed;imageAspect=0;image=https://cdn.worldvectorlogo.com/logos/jwt-3.svg;" parent="ushxtYaF4rhHJb4sQvZ_-16" vertex="1">
          <mxGeometry x="263.5" y="95.81" width="17" height="17" as="geometry" />
        </mxCell>
        <mxCell id="V8vmQvvyC8vrOCU54Fl0-45" value="aop" style="shape=process;whiteSpace=wrap;html=1;backgroundOutline=1;" parent="ushxtYaF4rhHJb4sQvZ_-16" vertex="1">
          <mxGeometry x="287" y="82.51000000000002" width="50" height="24.26" as="geometry" />
        </mxCell>
        <mxCell id="V8vmQvvyC8vrOCU54Fl0-47" style="edgeStyle=orthogonalEdgeStyle;rounded=0;orthogonalLoop=1;jettySize=auto;html=1;entryX=0;entryY=0;entryDx=0;entryDy=30;entryPerimeter=0;exitX=0.5;exitY=1;exitDx=0;exitDy=0;" parent="ushxtYaF4rhHJb4sQvZ_-16" source="V8vmQvvyC8vrOCU54Fl0-4" target="ushxtYaF4rhHJb4sQvZ_-10" edge="1">
          <mxGeometry relative="1" as="geometry" />
        </mxCell>
        <mxCell id="V8vmQvvyC8vrOCU54Fl0-48" style="edgeStyle=orthogonalEdgeStyle;rounded=0;orthogonalLoop=1;jettySize=auto;html=1;entryX=0;entryY=0;entryDx=50.00000000000001;entryDy=0;entryPerimeter=0;" parent="ushxtYaF4rhHJb4sQvZ_-16" source="V8vmQvvyC8vrOCU54Fl0-4" target="ushxtYaF4rhHJb4sQvZ_-9" edge="1">
          <mxGeometry relative="1" as="geometry" />
        </mxCell>
        <mxCell id="WP5W_lPEROao1dVLcA8x-6" value="" style="endArrow=classic;html=1;rounded=0;exitX=1;exitY=0;exitDx=0;exitDy=0;entryX=0.5;entryY=1;entryDx=0;entryDy=0;" parent="ushxtYaF4rhHJb4sQvZ_-16" source="o0dc_WJTzwSoo736SJXJ-5" target="V8vmQvvyC8vrOCU54Fl0-45" edge="1">
          <mxGeometry width="50" height="50" relative="1" as="geometry">
            <mxPoint x="332" y="214.15" as="sourcePoint" />
            <mxPoint x="382" y="164.15" as="targetPoint" />
          </mxGeometry>
        </mxCell>
        <mxCell id="WP5W_lPEROao1dVLcA8x-8" value="" style="endArrow=classic;html=1;rounded=0;exitX=0.5;exitY=0;exitDx=0;exitDy=0;entryX=0.5;entryY=1;entryDx=0;entryDy=0;" parent="ushxtYaF4rhHJb4sQvZ_-16" source="o0dc_WJTzwSoo736SJXJ-5" target="V8vmQvvyC8vrOCU54Fl0-43" edge="1">
          <mxGeometry width="50" height="50" relative="1" as="geometry">
            <mxPoint x="292" y="187.15" as="sourcePoint" />
            <mxPoint x="332" y="127.15" as="targetPoint" />
          </mxGeometry>
        </mxCell>
        <mxCell id="WP5W_lPEROao1dVLcA8x-7" value="" style="endArrow=classic;html=1;rounded=0;exitX=0;exitY=0;exitDx=0;exitDy=0;entryX=0.5;entryY=1;entryDx=0;entryDy=0;" parent="ushxtYaF4rhHJb4sQvZ_-16" source="o0dc_WJTzwSoo736SJXJ-5" target="o0dc_WJTzwSoo736SJXJ-1" edge="1">
          <mxGeometry width="50" height="50" relative="1" as="geometry">
            <mxPoint x="282" y="177.15" as="sourcePoint" />
            <mxPoint x="322" y="117.15" as="targetPoint" />
          </mxGeometry>
        </mxCell>
        <mxCell id="WP5W_lPEROao1dVLcA8x-1" value="&lt;font style=&quot;font-size: 14px;&quot;&gt;Создание пользователя&lt;/font&gt;" style="edgeLabel;html=1;align=center;verticalAlign=middle;resizable=0;points=[];" parent="ushxtYaF4rhHJb4sQvZ_-16" vertex="1" connectable="0">
          <mxGeometry x="552.0008764754473" y="166.80779360284632" as="geometry">
            <mxPoint x="6" y="-2" as="offset" />
          </mxGeometry>
        </mxCell>
        <mxCell id="WP5W_lPEROao1dVLcA8x-9" value="" style="endArrow=classic;html=1;rounded=0;entryX=0;entryY=0;entryDx=0;entryDy=30;entryPerimeter=0;exitX=0.5;exitY=0;exitDx=0;exitDy=0;exitPerimeter=0;" parent="ushxtYaF4rhHJb4sQvZ_-16" source="V8vmQvvyC8vrOCU54Fl0-16" target="ushxtYaF4rhHJb4sQvZ_-11" edge="1">
          <mxGeometry width="50" height="50" relative="1" as="geometry">
            <mxPoint x="372" y="404.15" as="sourcePoint" />
            <mxPoint x="422" y="354.15" as="targetPoint" />
            <Array as="points">
              <mxPoint x="462" y="384.15" />
            </Array>
          </mxGeometry>
        </mxCell>
        <mxCell id="WP5W_lPEROao1dVLcA8x-10" value="&lt;font style=&quot;font-size: 14px;&quot;&gt;Создание пользователя&lt;/font&gt;" style="edgeLabel;html=1;align=center;verticalAlign=middle;resizable=0;points=[];" parent="WP5W_lPEROao1dVLcA8x-9" vertex="1" connectable="0">
          <mxGeometry x="-0.2827" y="1" relative="1" as="geometry">
            <mxPoint as="offset" />
          </mxGeometry>
        </mxCell>
        <mxCell id="I3dpJB601hzYIIYLwISs-1" style="edgeStyle=orthogonalEdgeStyle;rounded=0;orthogonalLoop=1;jettySize=auto;html=1;entryX=0.545;entryY=0.984;entryDx=0;entryDy=0;entryPerimeter=0;" parent="ushxtYaF4rhHJb4sQvZ_-16" source="V8vmQvvyC8vrOCU54Fl0-4" target="ushxtYaF4rhHJb4sQvZ_-11" edge="1">
          <mxGeometry relative="1" as="geometry">
            <Array as="points">
              <mxPoint x="72" y="520" />
              <mxPoint x="750" y="520" />
              <mxPoint x="750" y="454" />
            </Array>
          </mxGeometry>
        </mxCell>
        <mxCell id="ushxtYaF4rhHJb4sQvZ_-24" value="" style="shape=cylinder3;whiteSpace=wrap;html=1;boundedLbl=1;backgroundOutline=1;size=15;" parent="ushxtYaF4rhHJb4sQvZ_-16" vertex="1">
          <mxGeometry x="132" y="440" width="60" height="77.56" as="geometry" />
        </mxCell>
        <mxCell id="ushxtYaF4rhHJb4sQvZ_-23" value="" style="shape=image;verticalLabelPosition=bottom;labelBackgroundColor=default;verticalAlign=top;aspect=fixed;imageAspect=0;image=https://upload.wikimedia.org/wikipedia/commons/thumb/e/e1/Flyway_logo.svg/1200px-Flyway_logo.svg.png;" parent="ushxtYaF4rhHJb4sQvZ_-16" vertex="1">
          <mxGeometry x="144.5" y="474.28000000000003" width="35" height="33.28" as="geometry" />
        </mxCell>
        <mxCell id="ushxtYaF4rhHJb4sQvZ_-27" value="" style="shape=rectangle;whiteSpace=wrap;html=1;boundedLbl=1;backgroundOutline=1;darkOpacity=0.05;darkOpacity2=0.1;" parent="ushxtYaF4rhHJb4sQvZ_-16" vertex="1">
          <mxGeometry x="210" y="460" width="152" height="50" as="geometry" />
        </mxCell>
        <mxCell id="ushxtYaF4rhHJb4sQvZ_-26" value="" style="shape=image;verticalLabelPosition=bottom;labelBackgroundColor=default;verticalAlign=top;aspect=fixed;imageAspect=0;image=https://upload.wikimedia.org/wikipedia/commons/thumb/4/4e/Docker_%28container_engine%29_logo.svg/2560px-Docker_%28container_engine%29_logo.svg.png;" parent="ushxtYaF4rhHJb4sQvZ_-16" vertex="1">
          <mxGeometry x="220" y="470.24" width="122" height="28.98" as="geometry" />
        </mxCell>
        <mxCell id="V8vmQvvyC8vrOCU54Fl0-56" value="" style="shape=rectangle;whiteSpace=wrap;html=1;boundedLbl=1;backgroundOutline=1;darkOpacity=0.05;darkOpacity2=0.1;" parent="ushxtYaF4rhHJb4sQvZ_-16" vertex="1">
          <mxGeometry x="370" y="460" width="72" height="50" as="geometry" />
        </mxCell>
        <mxCell id="V8vmQvvyC8vrOCU54Fl0-55" value="" style="shape=image;verticalLabelPosition=bottom;labelBackgroundColor=default;verticalAlign=top;aspect=fixed;imageAspect=0;image=https://seeklogo.com/images/J/jaeger-logo-9E2F0DC07B-seeklogo.com.png;" parent="ushxtYaF4rhHJb4sQvZ_-16" vertex="1">
          <mxGeometry x="390" y="465.99" width="32" height="43.82" as="geometry" />
        </mxCell>
        <mxCell id="B4BKWZmmeEH_wCfvicj3-3" value="core" style="shape=cylinder3;whiteSpace=wrap;html=1;boundedLbl=1;backgroundOutline=1;size=15;" parent="ushxtYaF4rhHJb4sQvZ_-16" vertex="1">
          <mxGeometry x="669.5" y="425.03000000000003" width="52" height="62.51" as="geometry" />
        </mxCell>
        <mxCell id="B4BKWZmmeEH_wCfvicj3-4" value="" style="shape=image;verticalLabelPosition=bottom;labelBackgroundColor=default;verticalAlign=top;aspect=fixed;imageAspect=0;image=https://upload.wikimedia.org/wikipedia/commons/thumb/2/29/Postgresql_elephant.svg/1985px-Postgresql_elephant.svg.png;" parent="ushxtYaF4rhHJb4sQvZ_-16" vertex="1">
          <mxGeometry x="712" y="475.99" width="25.5" height="26.29" as="geometry" />
        </mxCell>
        <mxCell id="B4BKWZmmeEH_wCfvicj3-5" value="participant" style="shape=cylinder3;whiteSpace=wrap;html=1;boundedLbl=1;backgroundOutline=1;size=15;" parent="ushxtYaF4rhHJb4sQvZ_-16" vertex="1">
          <mxGeometry x="124.5" y="216.81" width="52" height="69.32" as="geometry" />
        </mxCell>
        <mxCell id="B4BKWZmmeEH_wCfvicj3-6" value="" style="shape=image;verticalLabelPosition=bottom;labelBackgroundColor=default;verticalAlign=top;aspect=fixed;imageAspect=0;image=https://upload.wikimedia.org/wikipedia/commons/thumb/2/29/Postgresql_elephant.svg/1985px-Postgresql_elephant.svg.png;" parent="ushxtYaF4rhHJb4sQvZ_-16" vertex="1">
          <mxGeometry x="162" y="269.43" width="30.5" height="31.44" as="geometry" />
        </mxCell>
        <mxCell id="vhL8T_Kz3feTDWINxSuc-1" value="Spring boot" style="text;html=1;strokeColor=none;fillColor=none;align=center;verticalAlign=middle;whiteSpace=wrap;rounded=0;" vertex="1" parent="ushxtYaF4rhHJb4sQvZ_-16">
          <mxGeometry x="222" y="240" width="88" height="30" as="geometry" />
        </mxCell>
        <mxCell id="vhL8T_Kz3feTDWINxSuc-2" value="Spring boot" style="text;html=1;strokeColor=none;fillColor=none;align=center;verticalAlign=middle;whiteSpace=wrap;rounded=0;" vertex="1" parent="ushxtYaF4rhHJb4sQvZ_-16">
          <mxGeometry x="743" y="155.82" width="88" height="30" as="geometry" />
        </mxCell>
        <mxCell id="vhL8T_Kz3feTDWINxSuc-3" value="Spring boot" style="text;html=1;strokeColor=none;fillColor=none;align=center;verticalAlign=middle;whiteSpace=wrap;rounded=0;" vertex="1" parent="ushxtYaF4rhHJb4sQvZ_-16">
          <mxGeometry x="758.75" y="450" width="88" height="30" as="geometry" />
        </mxCell>
        <mxCell id="vhL8T_Kz3feTDWINxSuc-5" value="Spring Security" style="rounded=0;whiteSpace=wrap;html=1;" vertex="1" parent="ushxtYaF4rhHJb4sQvZ_-16">
          <mxGeometry x="460" y="460" width="120" height="50" as="geometry" />
        </mxCell>
        <mxCell id="I3dpJB601hzYIIYLwISs-2" style="edgeStyle=orthogonalEdgeStyle;rounded=0;orthogonalLoop=1;jettySize=auto;html=1;entryX=0;entryY=0;entryDx=0;entryDy=30;entryPerimeter=0;" parent="1" source="ushxtYaF4rhHJb4sQvZ_-3" target="V8vmQvvyC8vrOCU54Fl0-4" edge="1">
          <mxGeometry relative="1" as="geometry" />
        </mxCell>
      </root>
    </mxGraphModel>
  </diagram>
</mxfile>
